<svg width="24" height="24" viewBox="0 0 24 24" fill="none" xmlns="http://www.w3.org/2000/svg">
<path fill-rule="evenodd" clip-rule="evenodd" d="M20.5 12C20.5 16.6944 16.6944 20.5 12 20.5C7.30558 20.5 3.5 16.6944 3.5 12C3.5 7.30558 7.30558 3.5 12 3.5C16.6944 3.5 20.5 7.30558 20.5 12ZM22 12C22 17.5228 17.5228 22 12 22C6.47715 22 2 17.5228 2 12C2 6.47715 6.47715 2 12 2C17.5228 2 22 6.47715 22 12ZM11.061 15.5713L17.561 9.17776L16.439 8.03709L10.5047 13.8743L8.06569 11.4353L6.93431 12.5667L9.93431 15.5667C10.2449 15.8773 10.7478 15.8793 11.061 15.5713Z" fill="#2DC36A"/>
</svg>
